<svg width="200" viewBox="0 0 1035 178" fill="none" xmlns="http://www.w3.org/2000/svg">
<path fillRule="evenodd" clipRule="evenodd" d="M660.703 28C660.703 43.464 648.167 56 632.703 56C632.657 56 632.611 55.9999 632.565 55.9997L632.469 55.999C633.011 57.0252 633.515 58.0789 633.983 59.16C636.543 64.792 637.823 71.0213 637.823 77.848C637.823 84.5893 636.543 90.8187 633.983 96.536C631.508 102.253 628.01 107.245 623.487 111.512C621.937 112.945 620.292 114.268 618.552 115.48L627.446 129.441L632.108 126.472L652.894 159.101C656.455 164.691 654.811 172.109 649.221 175.67C643.632 179.231 636.214 177.586 632.653 171.996L611.866 139.367L617.038 136.072L607.569 121.209C607.542 121.219 607.515 121.23 607.487 121.24C601.343 123.544 594.602 124.696 587.263 124.696C580.01 124.696 573.268 123.544 567.039 121.24C560.895 118.936 555.562 115.693 551.039 111.512C546.516 107.245 542.975 102.253 540.415 96.536C537.94 90.8187 536.703 84.5893 536.703 77.848C536.703 71.0213 537.94 64.792 540.415 59.16C540.955 57.9547 541.538 56.7835 542.165 55.6464C540.712 55.8791 539.222 56 537.703 56C522.239 56 509.703 43.464 509.703 28C509.703 12.536 522.239 0 537.703 0C553.167 0 565.703 12.536 565.703 28C565.703 30.5579 565.36 33.0357 564.718 35.3898C565.478 35.0625 566.252 34.7512 567.039 34.456C573.268 32.152 580.01 31 587.263 31C593.733 31 599.739 31.8955 605.281 33.6865C604.902 31.8503 604.703 29.9484 604.703 28C604.703 12.536 617.239 0 632.703 0C648.167 0 660.703 12.536 660.703 28ZM587.263 100.248C590.079 100.248 592.682 99.736 595.071 98.712C597.546 97.688 599.679 96.2373 601.471 94.36C603.348 92.3973 604.799 90.0507 605.823 87.32C606.847 84.504 607.359 81.3467 607.359 77.848C607.359 74.3493 606.847 71.2347 605.823 68.504C604.799 65.688 603.348 63.3413 601.471 61.464C599.679 59.5013 597.546 58.008 595.071 56.984C592.682 55.96 590.079 55.448 587.263 55.448C584.447 55.448 581.802 55.96 579.327 56.984C576.938 58.008 574.804 59.5013 572.927 61.464C571.135 63.3413 569.727 65.688 568.703 68.504C567.679 71.2347 567.167 74.3493 567.167 77.848C567.167 81.3467 567.679 84.504 568.703 87.32C569.727 90.0507 571.135 92.3973 572.927 94.36C574.804 96.2373 576.938 97.688 579.327 98.712C581.802 99.736 584.447 100.248 587.263 100.248ZM153.557 123.592C159.786 125.896 166.527 127.048 173.781 127.048C181.119 127.048 187.861 125.896 194.005 123.592C200.149 121.288 205.482 118.045 210.005 113.864C214.527 109.597 218.026 104.605 220.501 98.8876C223.061 93.1702 224.341 86.9409 224.341 80.1996C224.341 73.3729 223.061 67.1436 220.501 61.5116C218.026 55.7942 214.527 50.8449 210.005 46.6636C205.482 42.3969 200.149 39.1116 194.005 36.8076C187.861 34.5036 181.119 33.3516 173.781 33.3516C166.527 33.3516 159.786 34.5036 153.557 36.8076C147.413 39.1116 142.079 42.3969 137.557 46.6636C133.034 50.8449 129.493 55.7942 126.933 61.5116C124.458 67.1436 123.221 73.3729 123.221 80.1996C123.221 86.9409 124.458 93.1702 126.933 98.8876C129.493 104.605 133.034 109.597 137.557 113.864C142.079 118.045 147.413 121.288 153.557 123.592ZM181.589 101.064C179.199 102.088 176.597 102.6 173.781 102.6C170.965 102.6 168.319 102.088 165.845 101.064C163.455 100.04 161.322 98.5889 159.445 96.7116C157.653 94.7489 156.245 92.4022 155.221 89.6716C154.197 86.8556 153.685 83.6982 153.685 80.1996C153.685 76.7009 154.197 73.5862 155.221 70.8556C156.245 68.0396 157.653 65.6929 159.445 63.8156C161.322 61.8529 163.455 60.3596 165.845 59.3356C168.319 58.3116 170.965 57.7996 173.781 57.7996C176.597 57.7996 179.199 58.3116 181.589 59.3356C184.063 60.3596 186.197 61.8529 187.989 63.8156C189.866 65.6929 191.317 68.0396 192.341 70.8556C193.365 73.5862 193.877 76.7009 193.877 80.1996C193.877 83.6982 193.365 86.8556 192.341 89.6716C191.317 92.4022 189.866 94.7489 187.989 96.7116C186.197 98.5889 184.063 100.04 181.589 101.064ZM357.686 124.488C364.684 126.194 371.937 127.048 379.446 127.048C388.748 127.048 396.47 125.682 402.614 122.952C408.758 120.136 413.366 116.466 416.438 111.944C419.596 107.336 421.174 102.301 421.174 96.8396C421.174 92.1462 420.278 88.2209 418.486 85.0636C416.694 81.9062 414.305 79.3462 411.318 77.3836C408.417 75.4209 405.217 73.8422 401.718 72.6476C398.22 71.4529 394.678 70.5142 391.094 69.8316C387.596 69.1489 384.353 68.5089 381.366 67.9116C378.465 67.3142 376.118 66.5889 374.326 65.7356C372.534 64.7969 371.638 63.5596 371.638 62.0236C371.638 60.9996 371.98 60.0609 372.662 59.2076C373.43 58.3542 374.668 57.6716 376.374 57.1596C378.081 56.6476 380.385 56.3916 383.286 56.3916C387.212 56.3916 391.222 56.9462 395.318 58.0556C399.5 59.1649 403.809 60.8289 408.246 63.0476L417.334 41.1596C412.641 38.5142 407.35 36.5516 401.462 35.2716C395.574 33.9916 389.601 33.3516 383.542 33.3516C374.326 33.3516 366.604 34.7169 360.374 37.4476C354.23 40.1782 349.58 43.8476 346.422 48.4556C343.35 52.9782 341.814 58.0129 341.814 63.5596C341.814 68.3382 342.71 72.3489 344.502 75.5916C346.294 78.7489 348.641 81.3089 351.542 83.2716C354.529 85.2342 357.772 86.8129 361.27 88.0076C364.854 89.2022 368.396 90.1836 371.894 90.9516C375.393 91.6342 378.593 92.3169 381.494 92.9996C384.481 93.5969 386.87 94.3649 388.662 95.3036C390.454 96.2422 391.35 97.5222 391.35 99.1436C391.35 100.168 390.966 101.064 390.198 101.832C389.43 102.514 388.193 103.069 386.486 103.496C384.865 103.837 382.604 104.008 379.702 104.008C374.753 104.008 369.633 103.282 364.342 101.832C359.137 100.296 354.401 98.2902 350.134 95.8156L340.406 117.832C344.929 120.562 350.689 122.781 357.686 124.488ZM879.337 124.488C886.334 126.194 893.587 127.048 901.097 127.048C910.398 127.048 918.121 125.682 924.265 122.952C930.409 120.136 935.017 116.466 938.089 111.944C941.246 107.336 942.825 102.301 942.825 96.8396C942.825 92.1462 941.929 88.2209 940.137 85.0636C938.345 81.9062 935.955 79.3462 932.969 77.3836C930.067 75.4209 926.867 73.8422 923.369 72.6476C919.87 71.4529 916.329 70.5142 912.745 69.8316C909.246 69.1489 906.003 68.5089 903.017 67.9116C900.115 67.3142 897.769 66.5889 895.977 65.7356C894.185 64.7969 893.289 63.5596 893.289 62.0236C893.289 60.9996 893.63 60.0609 894.313 59.2076C895.081 58.3542 896.318 57.6716 898.025 57.1596C899.731 56.6476 902.035 56.3916 904.937 56.3916C908.862 56.3916 912.873 56.9462 916.969 58.0556C921.15 59.1649 925.459 60.8289 929.897 63.0476L938.985 41.1596C934.291 38.5142 929.001 36.5516 923.113 35.2716C917.225 33.9916 911.251 33.3516 905.193 33.3516C895.977 33.3516 888.254 34.7169 882.025 37.4476C875.881 40.1782 871.23 43.8476 868.073 48.4556C865.001 52.9782 863.465 58.0129 863.465 63.5596C863.465 68.3382 864.361 72.3489 866.153 75.5916C867.945 78.7489 870.291 81.3089 873.193 83.2716C876.179 85.2342 879.422 86.8129 882.921 88.0076C886.505 89.2022 890.046 90.1836 893.545 90.9516C897.043 91.6342 900.243 92.3169 903.145 92.9996C906.131 93.5969 908.521 94.3649 910.313 95.3036C912.105 96.2422 913.001 97.5222 913.001 99.1436C913.001 100.168 912.617 101.064 911.849 101.832C911.081 102.514 909.843 103.069 908.137 103.496C906.515 103.837 904.254 104.008 901.353 104.008C896.403 104.008 891.283 103.282 885.993 101.832C880.787 100.296 876.051 98.2902 871.785 95.8156L862.057 117.832C866.579 120.562 872.339 122.781 879.337 124.488ZM977.701 58.8244V125H1007.91V58.8244H1034.15V35.4004H951.461V58.8244H977.701ZM803.581 102.216V90.4404H841.469V68.6804H803.581V58.1844H846.717V35.4004H773.885V125H848.381V102.216H803.581ZM676.581 115.912C684.26 123.336 694.97 127.048 708.709 127.048C722.447 127.048 733.157 123.336 740.837 115.912C748.517 108.488 752.357 98.0777 752.357 84.6804V35.4004H722.661V83.7844C722.661 90.6111 721.423 95.4751 718.949 98.3764C716.559 101.192 713.231 102.6 708.965 102.6C704.783 102.6 701.455 101.192 698.981 98.3764C696.506 95.4751 695.269 90.6111 695.269 83.7844V35.4004H665.061V84.6804C665.061 98.0777 668.901 108.488 676.581 115.912ZM465.54 102.216V90.4404H503.428V68.6804H465.54V58.1844H508.676V35.4004H435.844V125H510.34V102.216H465.54ZM282.865 127.048C269.126 127.048 258.417 123.336 250.737 115.912C243.057 108.488 239.217 98.0777 239.217 84.6804V35.4004H269.425V83.7844C269.425 90.6111 270.662 95.4751 273.137 98.3764C275.611 101.192 278.939 102.6 283.121 102.6C287.387 102.6 290.715 101.192 293.105 98.3764C295.579 95.4751 296.817 90.6111 296.817 83.7844V35.4004H326.513V84.6804C326.513 98.0777 322.673 108.488 314.993 115.912C307.313 123.336 296.603 127.048 282.865 127.048ZM0 35.4004V125H27.52V85.546L46.976 116.936H60.288L79.7826 84.131L80 125H107.52L107.264 35.4004H82.432L54.0494 83.0873L24.832 35.4004H0Z" fill="black"/>
</svg>
