<svg width="265" height="48" viewBox="0 0 265 48" fill="none" xmlns="http://www.w3.org/2000/svg">
  <g id="Group 17">
  <path id="Vector" d="M250.03 21.9468C249.559 21.8796 249.173 21.6779 248.87 21.3417C248.601 21.0055 248.467 20.6021 248.467 20.1314C248.467 19.8961 248.517 19.644 248.618 19.375C248.753 19.1061 248.937 18.8707 249.173 18.669C249.61 18.2992 250.198 17.9462 250.938 17.6101C251.711 17.3075 252.266 16.9377 252.602 16.5007C252.938 16.0636 253.106 15.24 253.106 14.0297C253.106 13.5255 253.072 13.0884 253.005 12.7186C252.972 12.3488 252.955 12.0631 252.955 11.8614C252.955 11.1218 253.224 10.5671 253.762 10.1973C254.3 9.82748 254.921 9.64258 255.627 9.64258C256.502 9.64258 257.09 9.8611 257.392 10.2981C257.729 10.7352 257.897 11.542 257.897 12.7186C257.897 13.8616 257.846 14.8534 257.745 15.6938C257.645 16.5007 257.426 17.2235 257.09 17.8622C257.56 17.8622 258.334 17.8286 259.409 17.7613C260.889 17.6941 261.914 17.6605 262.486 17.6605C263.057 17.6605 263.561 17.8118 263.998 18.1143C264.435 18.3833 264.654 18.7699 264.654 19.2742C264.654 19.9801 264.503 20.5012 264.2 20.8374C263.897 21.1736 263.46 21.3921 262.889 21.493C261.511 21.8628 259.561 22.0813 257.039 22.1485C256.972 23.4596 256.939 24.8884 256.939 26.4348C256.939 29.0234 257.09 31.0069 257.392 32.3852C257.594 33.461 257.93 34.251 258.401 34.7553C258.905 35.2259 259.645 35.4613 260.62 35.4613C261.124 35.4613 261.527 35.394 261.83 35.2596C262.166 35.1251 262.351 35.041 262.385 35.0074C262.788 34.7721 263.158 34.6544 263.494 34.6544C263.965 34.6544 264.301 34.8057 264.503 35.1083C264.738 35.4108 264.856 35.8143 264.856 36.3185C264.856 37.2598 264.351 38.0499 263.343 38.6886C262.334 39.2937 261.04 39.5963 259.46 39.5963C257.678 39.5963 256.165 39.0752 254.921 38.0331C253.711 36.9573 252.988 35.5453 252.753 33.7972C252.417 32.2171 252.249 29.9983 252.249 27.1408C252.249 25.8969 252.316 24.2328 252.451 22.1485L250.03 21.9468Z" fill="black"/>
  <path id="Vector_2" d="M241.593 28.5036C241.862 28.6717 242.383 28.9911 243.157 29.4617C243.963 29.8987 244.501 30.4198 244.77 31.0249C245.039 31.6301 245.174 32.4705 245.174 33.5463C245.174 34.7566 244.821 35.8323 244.115 36.7736C243.409 37.6813 242.501 38.3873 241.392 38.8916C240.618 39.2278 239.778 39.4295 238.87 39.4967C237.996 39.5639 236.937 39.5976 235.693 39.5976C235.021 39.5976 234.147 39.4967 233.071 39.295C232.029 39.0933 231.306 38.9084 230.903 38.7403C229.827 38.1352 228.919 37.4292 228.18 36.6224C227.44 35.8155 227.07 34.9919 227.07 34.1514C227.07 33.4791 227.289 32.9412 227.726 32.5378C228.163 32.1343 228.734 31.9326 229.44 31.9326C229.81 31.9326 230.163 32.0335 230.499 32.2352C230.869 32.4033 231.121 32.605 231.256 32.8403C231.626 33.7144 232.247 34.3699 233.122 34.807C233.996 35.244 234.887 35.4625 235.794 35.4625C238.988 35.4625 240.585 34.891 240.585 33.748C240.585 33.4455 240.501 33.2101 240.333 33.042C240.198 32.8403 239.996 32.6386 239.728 32.4369C239.29 32.1343 238.669 31.815 237.862 31.4788C237.088 31.1426 236.399 30.8905 235.794 30.7224C234.416 30.4198 233.071 29.966 231.76 29.3609C230.55 28.7557 229.558 27.9657 228.785 26.9908C228.012 25.9822 227.625 24.7552 227.625 23.3096C227.625 22.4355 227.944 21.5783 228.583 20.7378C229.255 19.8637 230.029 19.2082 230.903 18.7712C231.508 18.5358 232.5 18.2837 233.878 18.0147C235.256 17.7458 236.198 17.6113 236.702 17.6113C237.475 17.6113 238.316 17.6954 239.223 17.8635C240.131 17.9979 240.82 18.2333 241.291 18.5694C242.198 19.1073 242.938 19.6788 243.51 20.284C244.081 20.8555 244.367 21.511 244.367 22.2506C244.367 22.6204 244.283 23.0238 244.115 23.4609C243.947 23.8643 243.745 24.1164 243.51 24.2173C243.005 24.4526 242.417 24.5703 241.745 24.5703C241.442 24.5703 241.19 24.4862 240.988 24.3181C240.82 24.15 240.585 23.8811 240.282 23.5113C239.912 22.9398 239.559 22.6036 239.223 22.5028C238.82 22.4019 238.232 22.2842 237.458 22.1498C236.685 21.9817 236.164 21.8976 235.895 21.8976C235.055 21.8976 234.248 22.0657 233.475 22.4019C232.735 22.7381 232.365 23.1919 232.365 23.7634C232.365 24.4358 232.92 25.0073 234.029 25.478C234.735 25.8141 235.508 26.0999 236.349 26.3352C237.223 26.5706 237.761 26.7218 237.963 26.7891C238.433 26.8899 239.038 27.1252 239.778 27.495C240.551 27.8648 241.156 28.201 241.593 28.5036Z" fill="black"/>
  <path id="Vector_3" d="M203.039 27.848C203.039 25.7973 203.493 24.0996 204.401 22.7549C205.308 21.3766 206.569 20.0823 208.183 18.872C208.653 18.5358 209.443 18.2501 210.553 18.0147C211.662 17.7458 212.637 17.6113 213.477 17.6113C214.486 17.6113 215.545 17.8298 216.654 18.2669C217.797 18.6703 218.722 19.141 219.428 19.6788C220.672 20.5865 221.529 21.6455 222 22.8558C222.47 24.0324 222.706 25.4443 222.706 27.0916C222.706 27.7976 222.302 28.4868 221.495 29.1591C220.722 29.7979 219.882 30.1173 218.974 30.1173L217.058 30.0668C216.083 30.0668 214.688 30.1004 212.872 30.1677L211.813 30.2181C211.074 30.2853 210.519 30.319 210.149 30.319C209.611 30.319 208.872 30.2517 207.93 30.1173C208.065 31.6973 208.653 32.9412 209.695 33.8489C210.738 34.7229 211.864 35.16 213.074 35.16C215.192 35.16 216.671 34.7397 217.512 33.8993C218.218 33.395 218.688 33.0757 218.924 32.9412C219.159 32.8067 219.529 32.7395 220.033 32.7395C220.571 32.7395 221.042 32.9916 221.445 33.4959C221.848 34.0002 222.05 34.5044 222.05 35.0087C222.05 35.5802 221.697 36.1685 220.991 36.7736C220.319 37.3451 219.394 37.9503 218.218 38.589C217.579 38.858 216.705 39.0933 215.595 39.295C214.486 39.4967 213.562 39.5976 212.822 39.5976C211.645 39.5976 210.334 39.2614 208.889 38.589C207.443 37.883 206.367 37.1098 205.661 36.2694C204.955 35.4289 204.333 34.2355 203.795 32.689C203.291 31.1426 203.039 29.5289 203.039 27.848ZM213.074 26.4865C215.461 26.4865 217.209 26.4025 218.318 26.2344C218.251 25.2594 217.949 24.4694 217.411 23.8643C216.873 23.2256 216.133 22.6877 215.192 22.2506C214.889 22.1162 214.62 22.0153 214.385 21.9481C214.15 21.8808 213.881 21.8472 213.578 21.8472C212.032 21.8472 210.721 22.2674 209.645 23.1079C208.603 23.9483 207.981 25.0241 207.779 26.3352C209.46 26.4361 211.225 26.4865 213.074 26.4865Z" fill="black"/>
  <path id="Vector_4" d="M174.709 22.4012C174.44 22.4012 174.188 22.3003 173.953 22.0986C173.751 21.8633 173.65 21.5944 173.65 21.2918C173.65 20.5186 173.987 19.7958 174.659 19.1234C174.861 19.0226 175.264 18.8545 175.869 18.6192C176.474 18.3838 177.012 18.2662 177.483 18.2662C178.76 18.2662 179.803 18.6192 180.609 19.3251C181.416 19.9975 181.82 20.9724 181.82 22.2499C181.82 22.6197 181.752 23.4097 181.618 24.62C181.483 26.032 181.416 27.1245 181.416 27.8978C181.416 30.251 181.736 32.1504 182.374 33.596C182.61 34.0667 182.979 34.4365 183.484 34.7054C183.988 34.9744 184.442 35.1088 184.845 35.1088C185.82 35.1088 186.61 34.9407 187.215 34.6046C187.82 34.2684 188.476 33.7305 189.182 32.9909C189.888 32.2513 190.342 31.4108 190.543 30.4695C190.779 29.5282 190.947 28.2339 191.048 26.5866C191.115 25.5109 191.182 24.7208 191.249 24.2166C191.418 22.6029 191.502 21.2246 191.502 20.0815C191.502 19.342 191.703 18.7368 192.107 18.2662C192.51 17.7619 193.065 17.5098 193.771 17.5098C194.174 17.5098 194.628 17.6442 195.132 17.9132C195.67 18.1485 196.023 18.4343 196.191 18.7704C196.393 19.1066 196.494 19.6613 196.494 20.4345C196.494 20.838 196.443 21.2246 196.343 21.5944C196.107 22.4348 195.99 23.4434 195.99 24.62L196.04 27.2422C196.04 29.6291 196.208 31.394 196.544 32.5371C196.712 33.0749 196.948 33.6296 197.25 34.2011C197.553 34.739 197.839 35.1929 198.108 35.5627C198.78 36.3023 199.217 36.8234 199.419 37.1259C199.62 37.3949 199.721 37.6638 199.721 37.9328C199.721 38.3362 199.52 38.7228 199.116 39.0926C198.746 39.4288 198.343 39.5969 197.906 39.5969C196.662 39.5969 195.586 39.1766 194.678 38.3362C193.771 37.4957 193.098 36.4031 192.661 35.0584C191.518 36.3695 190.459 37.4285 189.485 38.2353C188.812 38.706 187.988 39.059 187.014 39.2943C186.039 39.496 185.064 39.5969 184.089 39.5969C182.778 39.5969 181.45 39.059 180.105 37.9832C178.76 36.9074 177.853 35.6635 177.382 34.2516C177.348 34.1843 177.248 33.9154 177.079 33.4447C176.945 32.9741 176.878 32.2681 176.878 31.3268C176.878 30.0829 176.945 28.5197 177.079 26.6371C177.18 25.4268 177.231 24.3174 177.231 23.3089C177.231 23.0063 177.113 22.7542 176.878 22.5525C176.676 22.3508 176.441 22.2499 176.172 22.2499C175.97 22.2499 175.735 22.2835 175.466 22.3508C175.23 22.3844 174.978 22.4012 174.709 22.4012Z" fill="black"/>
  <path id="Vector_5" d="M114.066 27.9993C114.066 26.7891 114.285 25.6629 114.722 24.6207C115.159 23.5449 115.798 22.4355 116.638 21.2925C117.479 20.1495 118.638 19.2586 120.118 18.6199C121.597 17.9475 123.211 17.6113 124.959 17.6113C126.303 17.6113 127.598 17.8971 128.842 18.4686C130.119 19.0065 131.262 19.6788 132.271 20.4857C132.405 20.721 132.64 21.158 132.977 21.7968C133.313 22.4019 133.548 22.9566 133.683 23.4609C133.851 23.9651 133.935 24.4862 133.935 25.0241C133.935 27.2765 133.111 28.7893 131.464 29.5626C129.816 30.3022 127.732 30.672 125.211 30.672C122.689 30.672 120.639 30.5039 119.059 30.1677C119.126 30.8064 119.294 31.4452 119.563 32.0839C119.832 32.7227 120.151 33.2101 120.521 33.5463C121.193 34.185 121.849 34.6053 122.488 34.807C123.16 34.9751 124.051 35.0591 125.16 35.0591C126.841 35.0591 128.152 34.7397 129.094 34.101C129.968 33.5295 130.64 33.2437 131.111 33.2437C131.75 33.2437 132.237 33.4454 132.573 33.8489C132.909 34.2187 133.077 34.7061 133.077 35.3113C133.077 36.5887 132.254 37.6309 130.607 38.4377C128.993 39.2446 127.161 39.648 125.11 39.648C123.496 39.648 121.899 39.3622 120.319 38.7907C118.739 38.2192 117.479 37.4124 116.537 36.3702C115.899 35.2944 115.327 33.9833 114.823 32.4369C114.319 30.8905 114.066 29.4113 114.066 27.9993ZM125.16 21.7464C124.421 21.7464 123.648 21.8808 122.841 22.1498C122.068 22.3851 121.462 22.7549 121.025 23.2592C120.487 23.8307 120.084 24.3518 119.815 24.8224C119.58 25.2931 119.428 25.8814 119.361 26.5874C119.731 26.5874 120.084 26.6042 120.42 26.6378C120.756 26.6714 121.076 26.705 121.378 26.7386C122.858 26.8731 123.967 26.9404 124.707 26.9404C126.186 26.9404 127.312 26.7218 128.085 26.2848C128.892 25.8478 129.295 25.2594 129.295 24.5198C129.295 23.8139 128.842 23.1751 127.934 22.6036C127.06 22.0321 126.135 21.7464 125.16 21.7464Z" fill="black"/>
  <path id="Vector_6" d="M106.134 28.0497C106.403 28.2178 106.924 28.5372 107.698 29.0079C108.504 29.4449 109.042 29.966 109.311 30.5711C109.58 31.1762 109.715 32.0167 109.715 33.0925C109.715 34.3027 109.362 35.3785 108.656 36.3198C107.95 37.2275 107.042 37.9335 105.933 38.4377C105.126 38.8075 104.134 39.0933 102.957 39.295C101.814 39.4967 100.907 39.5976 100.234 39.5976C99.562 39.5976 98.6879 39.4967 97.6122 39.295C96.57 39.0933 95.8472 38.9084 95.4438 38.7403C94.4016 38.1352 93.4939 37.3956 92.7207 36.5215C91.9811 35.6474 91.6113 34.7566 91.6113 33.8489C91.6113 33.1765 91.8298 32.6554 92.2669 32.2856C92.7039 31.8822 93.2754 31.6805 93.9814 31.6805C94.3176 31.6805 94.6706 31.815 95.0404 32.0839C95.4102 32.3192 95.6623 32.5714 95.7968 32.8403C96.1666 33.7144 96.7885 34.3699 97.6626 34.807C98.5366 35.244 99.4275 35.4625 100.335 35.4625C101.512 35.4625 102.604 35.2776 103.613 34.9078C104.622 34.5044 105.126 33.9665 105.126 33.2942C105.126 32.9916 105.042 32.7563 104.874 32.5882C104.739 32.3865 104.537 32.1848 104.269 31.9831C103.798 31.6469 103.092 31.3779 102.151 31.1762C101.209 30.9409 100.604 30.7896 100.335 30.7224C98.9569 30.4198 97.6122 29.966 96.301 29.3609C94.9899 28.7221 93.9478 27.9657 93.1746 27.0916C92.4013 26.2176 92.0147 25.0914 92.0147 23.713C92.0147 22.8053 92.3509 21.864 93.0233 20.8891C93.6956 19.8806 94.4521 19.1746 95.2925 18.7712C95.8976 18.5358 96.9062 18.2837 98.3181 18.0147C99.7637 17.7458 100.739 17.6113 101.243 17.6113C102.016 17.6113 102.857 17.6954 103.764 17.8635C104.672 17.9979 105.361 18.2333 105.832 18.5694C106.739 19.1073 107.479 19.6788 108.051 20.284C108.622 20.8555 108.908 21.511 108.908 22.2506C108.908 22.6204 108.824 23.0238 108.656 23.4609C108.488 23.8643 108.286 24.1164 108.051 24.2173C107.546 24.4526 106.958 24.5703 106.286 24.5703C105.983 24.5703 105.731 24.4862 105.529 24.3181C105.361 24.15 105.126 23.8811 104.823 23.5113C104.453 22.9398 104.1 22.6036 103.764 22.5028C103.361 22.4019 102.773 22.2842 101.999 22.1498C101.226 21.9817 100.705 21.8976 100.436 21.8976C99.6629 21.8976 98.856 22.1162 98.0156 22.5532C97.2087 22.9902 96.8053 23.4945 96.8053 24.066C96.8053 24.3686 96.923 24.6039 97.1583 24.772C97.4273 24.9401 97.6962 25.0914 97.9651 25.2258C98.2677 25.3603 98.4694 25.4443 98.5703 25.478C99.2763 25.8141 100.049 26.0999 100.89 26.3352C101.764 26.5706 102.302 26.7218 102.504 26.7891C104.319 27.2261 105.529 27.6463 106.134 28.0497Z" fill="black"/>
  <path id="Vector_7" d="M66.657 17.5123C68.8758 17.5123 69.9852 18.9746 69.9852 21.8994C69.9852 22.2692 69.9516 23.0929 69.8843 24.3703C69.8171 25.8495 69.7835 27.0094 69.7835 27.8498C69.7835 30.2031 70.1029 32.1025 70.7416 33.5481C70.9769 34.0187 71.3972 34.3885 72.0023 34.6575C72.641 34.9264 73.1789 35.0609 73.616 35.0609C74.2883 35.0609 74.843 34.9769 75.28 34.8088C75.7171 34.6407 76.1205 34.3885 76.4903 34.0524C76.8937 33.7162 77.2803 33.3464 77.6501 32.943C78.2889 32.237 78.6923 31.4301 78.8604 30.5225C79.0621 29.5812 79.1797 28.3373 79.2134 26.7908C79.2134 25.8159 79.2638 24.8746 79.3646 23.9669C79.5664 22.4877 79.6672 21.1094 79.6672 19.8319C79.6672 19.1259 79.8521 18.5376 80.2219 18.067C80.6253 17.5627 81.1968 17.3105 81.9364 17.3105C82.3062 17.3105 82.7433 17.445 83.2475 17.714C83.7854 17.9493 84.1384 18.2182 84.3065 18.5208C84.5418 18.9242 84.6595 19.4789 84.6595 20.1849C84.6595 20.6219 84.6091 21.0253 84.5082 21.3951C84.3401 21.8994 84.2561 22.5382 84.2561 23.3114C84.2561 23.7148 84.2897 24.3872 84.3569 25.3285C84.4578 26.0344 84.5082 26.7572 84.5082 27.4968C84.5082 29.7492 84.6763 31.4133 85.0125 32.4891C85.3823 33.6321 85.8866 34.6407 86.5253 35.5147C87.1977 36.2207 87.6515 36.7418 87.8868 37.078C88.1222 37.3805 88.2398 37.6495 88.2398 37.8848C88.2398 38.2882 88.0381 38.6748 87.6347 39.0446C87.2313 39.4144 86.8111 39.5993 86.374 39.5993C85.1301 39.5993 84.0376 39.1791 83.0963 38.3387C82.1886 37.4646 81.5162 36.3552 81.0792 35.0105C80.7094 35.4475 80.2219 35.9854 79.6168 36.6241C79.0117 37.2629 78.4401 37.784 77.9023 38.1874C76.5912 39.1287 74.9103 39.5993 72.8595 39.5993C72.0191 39.5993 71.0946 39.3472 70.0861 38.8429C69.1111 38.3387 68.2203 37.6831 67.4134 36.8763C66.6066 36.0358 66.0519 35.1449 65.7493 34.2036C65.7157 34.1364 65.6148 33.8675 65.4468 33.3968C65.3123 32.9262 65.2451 32.2202 65.2451 31.2789L65.1946 23.2105C65.1946 22.7399 65.077 22.0003 64.8416 20.9917C64.6399 20.3194 64.5391 19.8151 64.5391 19.4789C64.5391 18.9074 64.724 18.4368 65.0938 18.067C65.4972 17.6972 66.0183 17.5123 66.657 17.5123Z" fill="black"/>
  <path id="Vector_8" d="M58.6519 23.2103C58.9208 23.681 59.1393 24.3702 59.3074 25.2779C59.4755 26.1519 59.5595 26.9419 59.5595 27.6479C59.5595 28.959 59.2738 30.8248 58.7023 33.2453C56.3826 37.4812 52.9536 39.5992 48.4151 39.5992C46.7342 39.5992 45.0197 39.0445 43.2716 37.9351C41.5234 36.8257 40.3132 35.5482 39.6408 34.1026C38.7331 31.2114 38.2793 29.3793 38.2793 28.606C38.2793 27.2613 38.565 25.8326 39.1366 24.3197C39.7417 22.8069 40.4981 21.4958 41.4058 20.3864C41.9773 19.6132 43.0026 18.9577 44.4818 18.4198C45.961 17.8483 47.3057 17.5625 48.516 17.5625C50.8693 17.5625 52.8695 18.0163 54.5168 18.924C56.1641 19.7981 57.5425 21.2269 58.6519 23.2103ZM54.2647 31.3291C54.4328 30.8921 54.5168 29.7659 54.5168 27.9505C54.5168 26.9756 54.3319 26.0174 53.9621 25.0761C53.6259 24.1348 53.1217 23.328 52.4493 22.6556C52.3821 22.5884 52.1972 22.4875 51.8946 22.3531C51.5921 22.185 51.1718 22.0337 50.6339 21.8992C50.1297 21.7311 49.5414 21.6471 48.869 21.6471C46.9864 21.6471 45.608 22.4035 44.734 23.9163C43.8599 25.4291 43.4229 27.1437 43.4229 29.0599C43.4229 29.3961 43.5069 30.0348 43.675 30.9761C43.8767 31.9174 44.0448 32.5057 44.1793 32.7411C44.2801 32.9764 44.5323 33.3126 44.9357 33.7496C45.3727 34.153 45.8938 34.5228 46.4989 34.859C47.1377 35.1616 47.7932 35.3129 48.4656 35.3129C49.9784 35.3129 51.1886 34.9599 52.0963 34.2539C53.004 33.5143 53.7268 32.5394 54.2647 31.3291Z" fill="black"/>
  <path id="Vector_9" d="M29.0965 7.52859C29.5671 7.52859 30.1386 7.84796 30.811 8.4867C31.517 9.09183 31.87 9.61291 31.87 10.0499C31.87 12.1006 31.8027 14.9078 31.6682 18.4713C31.6346 19.3453 31.601 20.4043 31.5674 21.6482C31.5338 22.8584 31.517 24.2704 31.517 25.8841C31.517 30.994 31.8195 34.7592 32.4247 37.1797C32.391 37.9866 32.0717 38.5749 31.4665 38.9447C30.8614 39.2809 30.2563 39.449 29.6512 39.449C28.3064 39.449 27.4156 38.9783 26.9785 38.037C26.5751 37.0957 26.3734 35.751 26.3734 34.0028C26.3734 27.5145 26.4406 21.5473 26.5751 16.1012C22.709 20.4043 19.7002 24.0183 17.5486 26.943C17.5486 26.943 17.2461 27.1447 16.641 27.5482C16.0694 28.0524 15.5988 28.3046 15.229 28.3046C14.3549 28.3046 13.6321 28.086 13.0606 27.649C12.4891 27.212 11.9344 26.5732 11.3965 25.7328L8.97603 22.3037C7.29513 19.9505 6.06807 18.1687 5.29485 16.9585C5.29485 20.0513 5.44614 24.2536 5.7487 29.5652C5.98402 32.6245 6.10169 34.9273 6.10169 36.4738C6.10169 37.2806 5.89997 37.9698 5.49656 38.5413C5.09314 39.0792 4.4544 39.3481 3.58033 39.3481C2.70626 39.3481 1.98347 39.18 1.41196 38.8438C0.87407 38.5077 0.588313 38.0034 0.554694 37.331C0.588313 36.7595 0.605124 35.8182 0.605124 34.5071C0.605124 31.8849 0.521079 28.6912 0.352988 24.9259L0.252135 22.2029L0.151282 18.673C0.117664 17.6308 0.0840414 16.4206 0.0504235 15.0422C0.0168053 13.6303 0 12.1006 0 10.4534C0 8.43628 1.09258 7.42773 3.27776 7.42773C3.95012 7.42773 4.62249 7.59582 5.29485 7.93201C6.00083 8.26819 6.52191 8.75565 6.85809 9.39439C7.12703 10.571 8.11877 12.5209 9.83329 15.2439C11.5478 17.967 13.2287 20.522 14.876 22.9089C16.3552 21.0262 17.5655 19.6143 18.5068 18.673C20.1204 17.0257 21.4483 15.4961 22.4905 14.0841C23.5663 12.6722 24.7261 10.9744 25.97 8.99097C26.2725 8.58756 26.7096 8.25138 27.2811 7.98243C27.8526 7.67987 28.4577 7.52859 29.0965 7.52859Z" fill="black"/>
  <path id="Ellipse 16 (Stroke)" fill-rule="evenodd" clip-rule="evenodd" d="M153.953 34.6686C159.61 34.6686 164.196 30.0827 164.196 24.4256C164.196 18.7686 159.61 14.1826 153.953 14.1826C148.296 14.1826 143.71 18.7686 143.71 24.4256C143.71 30.0827 148.296 34.6686 153.953 34.6686ZM153.953 39.3962C162.221 39.3962 168.924 32.6936 168.924 24.4256C168.924 16.1576 162.221 9.45508 153.953 9.45508C145.685 9.45508 138.982 16.1576 138.982 24.4256C138.982 32.6936 145.685 39.3962 153.953 39.3962Z" fill="black"/>
  <path id="Vector 1 (Stroke)" fill-rule="evenodd" clip-rule="evenodd" d="M150.801 18.9107C150.801 17.6052 151.859 16.5469 153.164 16.5469C157.266 16.5467 162.62 19.6365 162.62 26.002C162.62 27.3074 161.561 28.3657 160.256 28.3657C158.95 28.3657 157.892 27.3074 157.892 26.002C157.892 22.9061 155.366 21.2743 153.165 21.2744C151.859 21.2745 150.801 20.2162 150.801 18.9107Z" fill="black"/>
  <path id="Rectangle 14" d="M159.469 36.0938L163.122 33.0929L171.402 43.1727C172.231 44.1815 172.085 45.671 171.076 46.4996C170.067 47.3283 168.578 47.1823 167.749 46.1735L159.469 36.0938Z" fill="black"/>
  <path id="Ellipse 17 (Stroke)" fill-rule="evenodd" clip-rule="evenodd" d="M138.195 12.6068C140.37 12.6068 142.134 10.843 142.134 8.66716C142.134 6.49137 140.37 4.72754 138.195 4.72754C136.019 4.72754 134.255 6.49137 134.255 8.66716C134.255 10.843 136.019 12.6068 138.195 12.6068ZM138.195 17.3343C142.981 17.3343 146.862 13.4539 146.862 8.66716C146.862 3.88042 142.981 0 138.195 0C133.408 0 129.527 3.88042 129.527 8.66716C129.527 13.4539 133.408 17.3343 138.195 17.3343Z" fill="black"/>
  <path id="Ellipse 18 (Stroke)" fill-rule="evenodd" clip-rule="evenodd" d="M169.712 12.6068C171.888 12.6068 173.652 10.843 173.652 8.66716C173.652 6.49137 171.888 4.72754 169.712 4.72754C167.536 4.72754 165.772 6.49137 165.772 8.66716C165.772 10.843 167.536 12.6068 169.712 12.6068ZM169.712 17.3343C174.499 17.3343 178.379 13.4539 178.379 8.66716C178.379 3.88042 174.499 0 169.712 0C164.925 0 161.045 3.88042 161.045 8.66716C161.045 13.4539 164.925 17.3343 169.712 17.3343Z" fill="black"/>
  </g>
</svg>
