<svg width="232" height="232" viewBox="0 0 232 232" fill="none" xmlns="http://www.w3.org/2000/svg">
<circle cx="116" cy="116" r="116" fill="url(#paint0_linear_51_19)"/>
<path fill-rule="evenodd" clip-rule="evenodd" d="M116.219 166.279C135.03 166.279 150.279 151.03 150.279 132.219C150.279 113.408 135.03 98.1594 116.219 98.1594C97.4084 98.1594 82.1594 113.408 82.1594 132.219C82.1594 151.03 97.4084 166.279 116.219 166.279ZM116.219 181.999C143.712 181.999 165.999 159.712 165.999 132.219C165.999 104.727 143.712 82.4395 116.219 82.4395C88.7266 82.4395 66.4395 104.727 66.4395 132.219C66.4395 159.712 88.7266 181.999 116.219 181.999Z" fill="white"/>
<path fill-rule="evenodd" clip-rule="evenodd" d="M63.8198 92.9197C71.0547 92.9197 76.9197 87.0547 76.9197 79.8198C76.9197 72.5849 71.0547 66.7199 63.8198 66.7199C56.5849 66.7199 50.7199 72.5849 50.7199 79.8198C50.7199 87.0547 56.5849 92.9197 63.8198 92.9197ZM63.8198 108.64C79.7366 108.64 92.6396 95.7366 92.6396 79.8198C92.6396 63.9031 79.7366 51 63.8198 51C47.9031 51 35 63.9031 35 79.8198C35 95.7366 47.9031 108.64 63.8198 108.64Z" fill="white"/>
<path fill-rule="evenodd" clip-rule="evenodd" d="M168.625 92.9197C175.859 92.9197 181.724 87.0547 181.724 79.8198C181.724 72.5849 175.859 66.7199 168.625 66.7199C161.39 66.7199 155.525 72.5849 155.525 79.8198C155.525 87.0547 161.39 92.9197 168.625 92.9197ZM168.625 108.64C184.541 108.64 197.444 95.7366 197.444 79.8198C197.444 63.9031 184.541 51 168.625 51C152.708 51 139.805 63.9031 139.805 79.8198C139.805 95.7366 152.708 108.64 168.625 108.64Z" fill="white"/>
<defs>
<linearGradient id="paint0_linear_51_19" x1="-27.1489" y1="5.33193e-06" x2="244.34" y2="335.66" gradientUnits="userSpaceOnUse">
<stop offset="0.151" stop-color="#8F00FF" stop-opacity="0.79"/>
<stop offset="1" stop-color="#216DFF"/>
</linearGradient>
</defs>
</svg>
